<svg width="500" height="600" viewBox="0 0 500 600" fill="none" xmlns="http://www.w3.org/2000/svg">
<g clip-path="url(#clip0_91_46)">
<path d="M500 0H0V600H500V0Z" fill="#181818"/>
<path d="M0 398L11.9097 399C23.8542 400 47.6736 402 71.4583 396.5C95.2431 391 118.993 378 142.778 385.2C166.562 392.3 190.382 419.7 214.236 427C238.09 434.3 261.91 421.7 285.764 412.3C309.618 403 333.438 397 357.222 399.5C381.007 402 404.757 413 428.542 416.2C452.326 419.3 476.146 414.7 488.09 412.3L500 410V601H488.09C476.146 601 452.326 601 428.542 601C404.757 601 381.007 601 357.222 601C333.438 601 309.618 601 285.764 601C261.91 601 238.09 601 214.236 601C190.382 601 166.562 601 142.778 601C118.993 601 95.2431 601 71.4583 601C47.6736 601 23.8542 601 11.9097 601H0V398Z" fill="#1C1C1C"/>
<path d="M0 466L11.9097 454.2C23.8542 442.3 47.6736 418.7 71.4583 416.3C95.2431 414 118.993 433 142.778 437.8C166.562 442.7 190.382 433.3 214.236 437.8C238.09 442.3 261.91 460.7 285.764 457.5C309.618 454.3 333.438 429.7 357.222 423.7C381.007 417.7 404.757 430.3 428.542 439.8C452.326 449.3 476.146 455.7 488.09 458.8L500 462V601H488.09C476.146 601 452.326 601 428.542 601C404.757 601 381.007 601 357.222 601C333.438 601 309.618 601 285.764 601C261.91 601 238.09 601 214.236 601C190.382 601 166.562 601 142.778 601C118.993 601 95.2431 601 71.4583 601C47.6736 601 23.8542 601 11.9097 601H0V466Z" fill="#171717"/>
<path d="M0 502L11.9097 497.7C23.8542 493.3 47.6736 484.7 71.4583 483.8C95.2431 483 118.993 490 142.778 494C166.562 498 190.382 499 214.236 494.3C238.09 489.7 261.91 479.3 285.764 475C309.618 470.7 333.438 472.3 357.222 477.2C381.007 482 404.757 490 428.542 488.2C452.326 486.3 476.146 474.7 488.09 468.8L500 463V601H488.09C476.146 601 452.326 601 428.542 601C404.757 601 381.007 601 357.222 601C333.438 601 309.618 601 285.764 601C261.91 601 238.09 601 214.236 601C190.382 601 166.562 601 142.778 601C118.993 601 95.2431 601 71.4583 601C47.6736 601 23.8542 601 11.9097 601H0V502Z" fill="#111111"/>
<path d="M0 527L11.9097 521.2C23.8542 515.3 47.6736 503.7 71.4583 500.8C95.2431 498 118.993 504 142.778 512C166.562 520 190.382 530 214.236 527.3C238.09 524.7 261.91 509.3 285.764 508C309.618 506.7 333.438 519.3 357.222 518.3C381.007 517.3 404.757 502.7 428.542 503.5C452.326 504.3 476.146 520.7 488.09 528.8L500 537V601H488.09C476.146 601 452.326 601 428.542 601C404.757 601 381.007 601 357.222 601C333.438 601 309.618 601 285.764 601C261.91 601 238.09 601 214.236 601C190.382 601 166.562 601 142.778 601C118.993 601 95.2431 601 71.4583 601C47.6736 601 23.8542 601 11.9097 601H0V527Z" fill="#090909"/>
<path d="M0 534L11.9097 535.8C23.8542 537.7 47.6736 541.3 71.4583 540.2C95.2431 539 118.993 533 142.778 537.7C166.562 542.3 190.382 557.7 214.236 564.8C238.09 572 261.91 571 285.764 569.3C309.618 567.7 333.438 565.3 357.222 563.8C381.007 562.3 404.757 561.7 428.542 555.5C452.326 549.3 476.146 537.7 488.09 531.8L500 526V601H488.09C476.146 601 452.326 601 428.542 601C404.757 601 381.007 601 357.222 601C333.438 601 309.618 601 285.764 601C261.91 601 238.09 601 214.236 601C190.382 601 166.562 601 142.778 601C118.993 601 95.2431 601 71.4583 601C47.6736 601 23.8542 601 11.9097 601H0V534Z" fill="black"/>
</g>
<defs>
<clipPath id="clip0_91_46">
<rect width="500" height="600" fill="white"/>
</clipPath>
</defs>
</svg>
