<svg width="1024" height="600" viewBox="0 0 1024 600" fill="none" xmlns="http://www.w3.org/2000/svg">
<g clip-path="url(#clip0_91_46)">
<path d="M1024 0H0V600H1024V0Z" fill="#181818"/>
<path d="M0 398L24.3911 399C48.8533 400 97.6356 402 146.347 396.5C195.058 391 243.698 378 292.409 385.2C341.12 392.3 389.902 419.7 438.756 427C487.609 434.3 536.391 421.7 585.244 412.3C634.098 403 682.88 397 731.591 399.5C780.302 402 828.942 413 877.653 416.2C926.364 419.3 975.147 414.7 999.609 412.3L1024 410V601H999.609C975.147 601 926.364 601 877.653 601C828.942 601 780.302 601 731.591 601C682.88 601 634.098 601 585.244 601C536.391 601 487.609 601 438.756 601C389.902 601 341.12 601 292.409 601C243.698 601 195.058 601 146.347 601C97.6356 601 48.8533 601 24.3911 601H0V398Z" fill="#1C1C1C"/>
<path d="M0 466L24.3911 454.2C48.8533 442.3 97.6356 418.7 146.347 416.3C195.058 414 243.698 433 292.409 437.8C341.12 442.7 389.902 433.3 438.756 437.8C487.609 442.3 536.391 460.7 585.244 457.5C634.098 454.3 682.88 429.7 731.591 423.7C780.302 417.7 828.942 430.3 877.653 439.8C926.364 449.3 975.147 455.7 999.609 458.8L1024 462V601H999.609C975.147 601 926.364 601 877.653 601C828.942 601 780.302 601 731.591 601C682.88 601 634.098 601 585.244 601C536.391 601 487.609 601 438.756 601C389.902 601 341.12 601 292.409 601C243.698 601 195.058 601 146.347 601C97.6356 601 48.8533 601 24.3911 601H0V466Z" fill="#171717"/>
<path d="M0 502L24.3911 497.7C48.8533 493.3 97.6356 484.7 146.347 483.8C195.058 483 243.698 490 292.409 494C341.12 498 389.902 499 438.756 494.3C487.609 489.7 536.391 479.3 585.244 475C634.098 470.7 682.88 472.3 731.591 477.2C780.302 482 828.942 490 877.653 488.2C926.364 486.3 975.147 474.7 999.609 468.8L1024 463V601H999.609C975.147 601 926.364 601 877.653 601C828.942 601 780.302 601 731.591 601C682.88 601 634.098 601 585.244 601C536.391 601 487.609 601 438.756 601C389.902 601 341.12 601 292.409 601C243.698 601 195.058 601 146.347 601C97.6356 601 48.8533 601 24.3911 601H0V502Z" fill="#111111"/>
<path d="M0 527L24.3911 521.2C48.8533 515.3 97.6356 503.7 146.347 500.8C195.058 498 243.698 504 292.409 512C341.12 520 389.902 530 438.756 527.3C487.609 524.7 536.391 509.3 585.244 508C634.098 506.7 682.88 519.3 731.591 518.3C780.302 517.3 828.942 502.7 877.653 503.5C926.364 504.3 975.147 520.7 999.609 528.8L1024 537V601H999.609C975.147 601 926.364 601 877.653 601C828.942 601 780.302 601 731.591 601C682.88 601 634.098 601 585.244 601C536.391 601 487.609 601 438.756 601C389.902 601 341.12 601 292.409 601C243.698 601 195.058 601 146.347 601C97.6356 601 48.8533 601 24.3911 601H0V527Z" fill="#090909"/>
<path d="M0 534L24.3911 535.8C48.8533 537.7 97.6356 541.3 146.347 540.2C195.058 539 243.698 533 292.409 537.7C341.12 542.3 389.902 557.7 438.756 564.8C487.609 572 536.391 571 585.244 569.3C634.098 567.7 682.88 565.3 731.591 563.8C780.302 562.3 828.942 561.7 877.653 555.5C926.364 549.3 975.147 537.7 999.609 531.8L1024 526V601H999.609C975.147 601 926.364 601 877.653 601C828.942 601 780.302 601 731.591 601C682.88 601 634.098 601 585.244 601C536.391 601 487.609 601 438.756 601C389.902 601 341.12 601 292.409 601C243.698 601 195.058 601 146.347 601C97.6356 601 48.8533 601 24.3911 601H0V534Z" fill="black"/>
</g>
<defs>
<clipPath id="clip0_91_46">
<rect width="1024" height="600" fill="white"/>
</clipPath>
</defs>
</svg>
