<svg width="1440" height="600" viewBox="0 0 1440 600" fill="none" xmlns="http://www.w3.org/2000/svg">
<g clip-path="url(#clip0_91_46)">
<path d="M1440 0H-560V600H1440V0Z" fill="#181818"/>
<path d="M-560 398L-512.361 399C-464.583 400 -369.306 402 -274.167 396.5C-179.028 391 -84.0278 378 11.1111 385.2C106.25 392.3 201.528 419.7 296.944 427C392.361 434.3 487.639 421.7 583.056 412.3C678.472 403 773.75 397 868.889 399.5C964.028 402 1059.03 413 1154.17 416.2C1249.31 419.3 1344.58 414.7 1392.36 412.3L1440 410V601H1392.36C1344.58 601 1249.31 601 1154.17 601C1059.03 601 964.028 601 868.889 601C773.75 601 678.472 601 583.056 601C487.639 601 392.361 601 296.944 601C201.528 601 106.25 601 11.1111 601C-84.0278 601 -179.028 601 -274.167 601C-369.306 601 -464.583 601 -512.361 601H-560V398Z" fill="#1C1C1C"/>
<path d="M-560 466L-512.361 454.2C-464.583 442.3 -369.306 418.7 -274.167 416.3C-179.028 414 -84.0278 433 11.1111 437.8C106.25 442.7 201.528 433.3 296.944 437.8C392.361 442.3 487.639 460.7 583.056 457.5C678.472 454.3 773.75 429.7 868.889 423.7C964.028 417.7 1059.03 430.3 1154.17 439.8C1249.31 449.3 1344.58 455.7 1392.36 458.8L1440 462V601H1392.36C1344.58 601 1249.31 601 1154.17 601C1059.03 601 964.028 601 868.889 601C773.75 601 678.472 601 583.056 601C487.639 601 392.361 601 296.944 601C201.528 601 106.25 601 11.1111 601C-84.0278 601 -179.028 601 -274.167 601C-369.306 601 -464.583 601 -512.361 601H-560V466Z" fill="#171717"/>
<path d="M-560 502L-512.361 497.7C-464.583 493.3 -369.306 484.7 -274.167 483.8C-179.028 483 -84.0278 490 11.1111 494C106.25 498 201.528 499 296.944 494.3C392.361 489.7 487.639 479.3 583.056 475C678.472 470.7 773.75 472.3 868.889 477.2C964.028 482 1059.03 490 1154.17 488.2C1249.31 486.3 1344.58 474.7 1392.36 468.8L1440 463V601H1392.36C1344.58 601 1249.31 601 1154.17 601C1059.03 601 964.028 601 868.889 601C773.75 601 678.472 601 583.056 601C487.639 601 392.361 601 296.944 601C201.528 601 106.25 601 11.1111 601C-84.0278 601 -179.028 601 -274.167 601C-369.306 601 -464.583 601 -512.361 601H-560V502Z" fill="#111111"/>
<path d="M-560 527L-512.361 521.2C-464.583 515.3 -369.306 503.7 -274.167 500.8C-179.028 498 -84.0278 504 11.1111 512C106.25 520 201.528 530 296.944 527.3C392.361 524.7 487.639 509.3 583.056 508C678.472 506.7 773.75 519.3 868.889 518.3C964.028 517.3 1059.03 502.7 1154.17 503.5C1249.31 504.3 1344.58 520.7 1392.36 528.8L1440 537V601H1392.36C1344.58 601 1249.31 601 1154.17 601C1059.03 601 964.028 601 868.889 601C773.75 601 678.472 601 583.056 601C487.639 601 392.361 601 296.944 601C201.528 601 106.25 601 11.1111 601C-84.0278 601 -179.028 601 -274.167 601C-369.306 601 -464.583 601 -512.361 601H-560V527Z" fill="#090909"/>
<path d="M-560 534L-512.361 535.8C-464.583 537.7 -369.306 541.3 -274.167 540.2C-179.028 539 -84.0278 533 11.1111 537.7C106.25 542.3 201.528 557.7 296.944 564.8C392.361 572 487.639 571 583.056 569.3C678.472 567.7 773.75 565.3 868.889 563.8C964.028 562.3 1059.03 561.7 1154.17 555.5C1249.31 549.3 1344.58 537.7 1392.36 531.8L1440 526V601H1392.36C1344.58 601 1249.31 601 1154.17 601C1059.03 601 964.028 601 868.889 601C773.75 601 678.472 601 583.056 601C487.639 601 392.361 601 296.944 601C201.528 601 106.25 601 11.1111 601C-84.0278 601 -179.028 601 -274.167 601C-369.306 601 -464.583 601 -512.361 601H-560V534Z" fill="black"/>
</g>
<defs>
<clipPath id="clip0_91_46">
<rect width="2000" height="600" fill="white" transform="translate(-560)"/>
</clipPath>
</defs>
</svg>
