<svg width="55" height="55" viewBox="0 0 55 55" fill="none" xmlns="http://www.w3.org/2000/svg">
<path d="M28.4455 35.9032C26.2705 37.9952 23.2874 39.2857 19.996 39.2857C13.3406 39.2857 7.94543 34.009 7.94543 27.5C7.94543 20.9909 13.3406 15.7143 19.996 15.7143C23.36 15.7143 26.4021 17.0624 28.588 19.2363L31.4286 16.4583C28.5153 13.5735 24.4692 11.7857 19.996 11.7857C11.1222 11.7857 3.92857 18.8212 3.92857 27.5C3.92857 36.1788 11.1222 43.2143 19.996 43.2143C24.3967 43.2143 28.384 41.4841 31.2858 38.6813L28.4455 35.9032Z" fill="white"/>
<path d="M36.4048 22.2619H32.4762V26.1905H28.5476V30.119H32.4762V34.0476H36.4048V30.119H40.3333V26.1905H36.4048V22.2619Z" fill="white"/>
<path d="M46.8809 22.2619H50.8095V26.1905H54.7381V30.119H50.8095V34.0476H46.8809V30.119H42.9524V26.1905H46.8809V22.2619Z" fill="white"/>
</svg>
