<svg width="50" height="50" viewBox="0 0 50 50" fill="none" xmlns="http://www.w3.org/2000/svg">
<g clip-path="url(#clip0_92_35)">
<path d="M30.4988 45.6834C30.565 45.687 30.6304 45.6933 30.6975 45.6933H45.8353C47.606 45.6933 49.0463 44.2521 49.0463 42.4822V7.39028C49.0463 5.62015 47.606 4.17925 45.8353 4.17925H30.6975C30.6309 4.17925 30.565 4.18574 30.4988 4.1889V0L0.953705 3.94304V45.955L30.4988 50V45.6834ZM30.4988 6.03386C30.5642 6.02465 30.6295 6.01415 30.6975 6.01415H45.8353C46.5942 6.01415 47.2114 6.63164 47.2114 7.39028V42.4822C47.2114 43.2407 46.5942 43.8584 45.8353 43.8584H30.6975C30.63 43.8584 30.5642 43.8476 30.4988 43.8377V6.03386ZM8.37317 27.4693C8.99468 27.48 9.68718 27.3483 10.0978 27.1826L10.4148 28.901C10.0304 29.0926 9.1703 29.2852 8.06383 29.2557C4.98925 29.1729 3.44552 27.1216 3.44552 24.4586C3.44552 21.27 5.56143 19.439 8.26471 19.3669C9.33363 19.339 10.1534 19.5481 10.5254 19.7399L10.0978 21.4894C9.67404 21.3093 9.09008 21.1473 8.35969 21.1587C6.74496 21.1868 5.50972 22.2312 5.50972 24.3348C5.50929 26.2283 6.55978 27.4387 8.37317 27.4693ZM14.1326 29.4179C13.0377 29.3882 11.969 29.0693 11.4397 28.753L11.8714 26.9334C12.4456 27.2479 13.335 27.5685 14.2616 27.5847C15.2694 27.6017 15.806 27.1815 15.806 26.5294C15.806 25.9076 15.342 25.5492 14.1754 25.1155C12.5859 24.5413 11.5641 23.6409 11.5641 22.2215C11.5641 20.5552 12.9097 19.2455 15.1827 19.1853C16.2873 19.1563 17.1107 19.3734 17.702 19.628L17.1983 21.4743C16.8017 21.2862 16.0983 21.0157 15.1388 21.0314C14.19 21.0467 13.7333 21.4949 13.7333 22.0071C13.7333 22.637 14.2754 22.9123 15.5306 23.3906C17.2731 24.0393 18.1043 24.9677 18.1043 26.3922C18.1047 28.0846 16.8161 29.4895 14.1326 29.4179ZM22.1818 29.632C20.9927 29.6005 19.8336 29.2672 19.2593 28.9367L19.7277 27.0435C20.3501 27.3706 21.3162 27.7057 22.3212 27.7227C23.4154 27.7416 23.9984 27.3035 23.9984 26.6247C23.9984 25.976 23.4938 25.602 22.2271 25.1497C20.5034 24.5504 19.3942 23.6142 19.3942 22.1362C19.3942 20.4019 20.8547 19.0363 23.3213 18.9711C24.5216 18.9391 25.4148 19.1638 26.0594 19.4289L25.5121 21.3541C25.0796 21.1588 24.3153 20.8775 23.2741 20.8945C22.2446 20.9115 21.7483 21.3784 21.7483 21.9125C21.7483 22.5683 22.3368 22.855 23.6986 23.3531C25.5926 24.0297 26.4958 24.9974 26.4958 26.4819C26.4958 28.2469 25.0955 29.7099 22.1818 29.632Z" fill="white"/>
<path d="M32.2261 26.42C32.2261 26.9612 32.146 27.5005 32.0658 28.0417C31.9852 28.5838 31.9044 29.1427 31.9044 29.6839C31.9044 31.7052 33.1462 32.4283 34.8091 32.4283H35.2293V31.3253H34.8691C33.7478 31.3253 33.2869 30.7044 33.2869 29.5845C33.2869 29.1034 33.3474 28.642 33.4272 28.1412C33.5073 27.6619 33.5673 27.1619 33.5673 26.6199C33.5879 25.3387 33.0267 24.6573 32.1255 24.4367V24.3982C33.0268 24.1575 33.588 23.5155 33.5673 22.2343C33.5673 21.695 33.5074 21.2139 33.4272 20.7133C33.3474 20.2322 33.2869 19.7517 33.2869 19.2913C33.2869 18.2101 33.687 17.5702 34.8691 17.5702H35.2293V16.4675H34.8091C33.1067 16.4675 31.9044 17.2488 31.9044 19.0919C31.9044 19.6528 31.9851 20.1937 32.0658 20.7548C32.1459 21.3138 32.2261 21.8735 32.2261 22.4353C32.2261 23.1359 32.0259 23.917 30.6045 23.917V24.9375C32.0259 24.9374 32.2261 25.7982 32.2261 26.42Z" fill="white"/>
<path d="M43.8048 29.6838C43.8048 29.1427 43.7245 28.5837 43.6438 28.0417C43.564 27.5005 43.4834 26.9612 43.4834 26.42C43.4834 25.7983 43.6845 24.9374 45.106 24.9374V23.9169C43.6842 23.9169 43.4834 23.1358 43.4834 22.4352C43.4834 21.8732 43.564 21.3137 43.6438 20.7547C43.7245 20.1936 43.8048 19.6527 43.8048 19.0918C43.8048 17.2487 42.5826 16.4674 40.8808 16.4674H40.4803V17.5701H40.8409C42.0029 17.5889 42.4233 18.2101 42.4233 19.2912C42.4233 19.7517 42.3422 20.2321 42.283 20.7132C42.2014 21.2143 42.1216 21.6954 42.1216 22.2343C42.1216 23.5155 42.6825 24.157 43.564 24.3981V24.4366C42.6825 24.6568 42.1216 25.3386 42.1216 26.6198C42.1216 27.1622 42.2014 27.6618 42.283 28.1411C42.3421 28.6419 42.4233 29.1033 42.4233 29.5844C42.4233 30.7043 41.9416 31.3064 40.8213 31.3252H40.4804V32.4282H40.9011C42.5431 32.4283 43.8048 31.7051 43.8048 29.6838Z" fill="white"/>
</g>
<defs>
<clipPath id="clip0_92_35">
<rect width="50" height="50" rx="4" fill="white"/>
</clipPath>
</defs>
</svg>
