<svg width="30" height="30" viewBox="0 0 30 30" fill="none" xmlns="http://www.w3.org/2000/svg">
<g clip-path="url(#clip0_27_374)">
<path d="M29.9912 0H0.00878906C0.003935 0 0 0.003935 0 0.00878906V29.9912C0 29.9961 0.003935 30 0.00878906 30H29.9912C29.9961 30 30 29.9961 30 29.9912V0.00878906C30 0.003935 29.9961 0 29.9912 0Z" fill="white"/>
<path d="M19.629 29.2383C20.4493 29.2383 20.3321 30.2344 20.3321 30.2344H9.66802C9.66802 30.2344 9.55084 29.2383 10.3711 29.2383C11.1329 29.2383 11.3086 28.8867 11.3086 28.5352L11.2501 25.6055C7.0899 26.543 6.21099 23.9649 6.21099 23.9649C5.50787 22.207 4.57037 21.7969 4.57037 21.7969C3.16412 20.8594 4.62896 20.8594 4.62896 20.8594C6.1524 20.9766 6.97271 22.3828 6.97271 22.3828C8.26177 24.668 10.4297 24.0235 11.3086 23.6719C11.4258 22.6758 11.836 22.0313 12.2461 21.6211C8.9063 21.2695 5.44927 19.9805 5.44927 14.2383C5.44927 12.5977 6.03521 11.25 6.97271 10.1953C6.79693 9.84377 6.32818 8.32033 7.14849 6.26955C7.14849 6.26955 8.37896 5.85939 11.2501 7.79298C13.711 7.08986 16.2891 7.08986 18.7501 7.79298C21.6211 5.85939 22.8516 6.26955 22.8516 6.26955C23.6719 8.32033 23.2032 9.84377 23.0274 10.1953C23.9649 11.25 24.5508 12.5977 24.5508 14.2383C24.5508 19.9805 21.0352 21.2695 17.6954 21.6211C18.2813 22.0899 18.7501 23.0274 18.7501 24.4336L18.6915 28.5352C18.6915 28.8867 18.8672 29.2383 19.629 29.2383Z" fill="black"/>
</g>
<defs>
<clipPath id="clip0_27_374">
<rect width="30" height="30" rx="4" fill="white"/>
</clipPath>
</defs>
</svg>
