<svg width="50" height="50" viewBox="0 0 50 50" fill="none" xmlns="http://www.w3.org/2000/svg">
<g clip-path="url(#clip0_92_32)">
<path d="M46.9443 0H3.05896C1.36642 0 0 1.36968 0 3.05896V46.9378C0 48.6336 1.36968 50 3.05896 50H46.941C48.6336 50 50 48.6303 50 46.9378V3.05896C50.0033 1.36968 48.6336 0 46.9443 0ZM14.5545 30.7429H11.9652V25.9425H7.68654V30.7429H5.08088V19.2604H7.68654V23.676H11.9652V19.2604H14.5545V30.7429ZM24.7848 21.4388H21.6508V30.7429H19.0419V21.4388H15.9568V19.2604H24.7848V21.4388ZM35.9836 30.7429L35.814 26.3501C35.7618 24.9674 35.7129 23.2977 35.7129 21.6312H35.664C35.3052 23.0955 34.8259 24.7326 34.3823 26.0762L32.9833 30.5603H30.9581L29.7287 26.1121C29.3536 24.7652 28.9623 23.1281 28.6916 21.6312H28.6558C28.5873 23.1803 28.5384 24.9543 28.4503 26.3827L28.2448 30.7429H25.8414L26.5751 19.2604H30.0385L31.1636 23.0955C31.519 24.4228 31.881 25.8544 32.1354 27.2013H32.1876C32.5137 25.8707 32.905 24.3543 33.2768 23.0759L34.5063 19.2604H37.8979L38.5273 30.7429H35.9836ZM47.6976 30.7429H40.5231V19.2604H43.132V28.5677H47.6976V30.7429Z" fill="white"/>
</g>
<defs>
<clipPath id="clip0_92_32">
<rect width="50" height="50" rx="4" fill="white"/>
</clipPath>
</defs>
</svg>
