<svg width="25" height="25" viewBox="0 0 25 25" fill="none" xmlns="http://www.w3.org/2000/svg">
<g clip-path="url(#clip0_86_18)">
<path d="M17.9688 0H7.03125C3.125 0 0 3.125 0 7.03125V11.7188V17.9688C0 21.875 3.125 25 7.03125 25H17.9688C21.875 25 25 21.875 25 17.9688V11.7188V7.03125C25 3.125 21.875 0 17.9688 0ZM12.5 7.8125C15.0781 7.8125 17.1875 9.92188 17.1875 12.5C17.1875 15.0781 15.0781 17.1875 12.5 17.1875C9.92188 17.1875 7.8125 15.0781 7.8125 12.5C7.8125 9.92188 9.92188 7.8125 12.5 7.8125ZM17.1875 5.46875C17.1875 4.60938 17.8906 3.90625 18.75 3.90625C19.6094 3.90625 20.3125 4.60938 20.3125 5.46875C20.3125 6.32812 19.6094 7.03125 18.75 7.03125C17.8906 7.03125 17.1875 6.32812 17.1875 5.46875Z" fill="white"/>
</g>
<defs>
<clipPath id="clip0_86_18">
<rect width="25" height="25" fill="white"/>
</clipPath>
</defs>
</svg>
