<svg width="50" height="50" viewBox="0 0 50 50" fill="none" xmlns="http://www.w3.org/2000/svg">
<path d="M4 0C1.79086 0 0 1.79086 0 4V46C0 48.2091 1.79086 50 4 50H46C48.2091 50 50 48.2091 50 46V4C50 1.79086 48.2091 0 46 0H4ZM27.2107 38.9946C27.2107 43.8607 24.3536 46.0821 20.1911 46.0821C17.4278 46.0821 15.5197 45.0342 14.2591 43.5439C13.4922 42.6372 13.9114 41.3187 14.9281 40.705C16.044 40.0315 17.3466 40.5759 18.3809 41.3692C18.8008 41.6913 19.3125 41.8857 19.9911 41.8857C21.5304 41.8857 22.5125 41.2821 22.5125 38.9286V25.3062C22.5125 24.0089 23.5642 22.9571 24.8616 22.9571C26.159 22.9571 27.2107 24.0089 27.2107 25.3063V38.9946ZM38.3259 46.0812C38.3253 46.0818 38.3245 46.0821 38.3237 46.0821C34.9886 46.0818 32.5536 44.8697 30.978 43.0818C30.1703 42.1654 30.5916 40.8048 31.6497 40.1944C32.731 39.5704 34.0592 39.9909 35.0084 40.8018C35.8238 41.4983 36.8477 41.9304 38.225 41.9304C40.1661 41.9304 41.4179 40.9589 41.4179 39.6089C41.4179 38.0018 40.1446 37.4321 37.9911 36.4839L36.8196 35.9821C33.4268 34.5429 31.1839 32.7232 31.1839 28.8946C31.1839 25.3679 33.8732 22.6893 38.0589 22.6893C40.343 22.6893 42.1324 23.2943 43.5369 24.7928C44.3227 25.6312 43.9765 26.9351 43.0089 27.5549C41.9593 28.2271 40.6464 27.7045 39.5457 27.1196C39.1123 26.8892 38.6237 26.7857 38.0482 26.7857C36.6768 26.7857 35.8054 27.6571 35.8054 28.7946C35.8054 30.2018 36.6768 30.7696 38.6964 31.6518L39.8679 32.1536C43.8643 33.8607 46.1071 35.6143 46.1071 39.5411C46.1071 43.7603 42.781 46.0799 38.3281 46.0804C38.3273 46.0804 38.3265 46.0807 38.3259 46.0812Z" fill="white"/>
</svg>
