<svg width="640" height="600" viewBox="0 0 640 600" fill="none" xmlns="http://www.w3.org/2000/svg">
<g clip-path="url(#clip0_91_46)">
<path d="M640 0H0V600H640V0Z" fill="#181818"/>
<path d="M0 398L15.2444 399C30.5333 400 61.0222 402 91.4667 396.5C121.911 391 152.311 378 182.756 385.2C213.2 392.3 243.689 419.7 274.222 427C304.756 434.3 335.244 421.7 365.778 412.3C396.311 403 426.8 397 457.244 399.5C487.689 402 518.089 413 548.533 416.2C578.978 419.3 609.467 414.7 624.756 412.3L640 410V601H624.756C609.467 601 578.978 601 548.533 601C518.089 601 487.689 601 457.244 601C426.8 601 396.311 601 365.778 601C335.244 601 304.756 601 274.222 601C243.689 601 213.2 601 182.756 601C152.311 601 121.911 601 91.4667 601C61.0222 601 30.5333 601 15.2444 601H0V398Z" fill="#1C1C1C"/>
<path d="M0 466L15.2444 454.2C30.5333 442.3 61.0222 418.7 91.4667 416.3C121.911 414 152.311 433 182.756 437.8C213.2 442.7 243.689 433.3 274.222 437.8C304.756 442.3 335.244 460.7 365.778 457.5C396.311 454.3 426.8 429.7 457.244 423.7C487.689 417.7 518.089 430.3 548.533 439.8C578.978 449.3 609.467 455.7 624.756 458.8L640 462V601H624.756C609.467 601 578.978 601 548.533 601C518.089 601 487.689 601 457.244 601C426.8 601 396.311 601 365.778 601C335.244 601 304.756 601 274.222 601C243.689 601 213.2 601 182.756 601C152.311 601 121.911 601 91.4667 601C61.0222 601 30.5333 601 15.2444 601H0V466Z" fill="#171717"/>
<path d="M0 502L15.2444 497.7C30.5333 493.3 61.0222 484.7 91.4667 483.8C121.911 483 152.311 490 182.756 494C213.2 498 243.689 499 274.222 494.3C304.756 489.7 335.244 479.3 365.778 475C396.311 470.7 426.8 472.3 457.244 477.2C487.689 482 518.089 490 548.533 488.2C578.978 486.3 609.467 474.7 624.756 468.8L640 463V601H624.756C609.467 601 578.978 601 548.533 601C518.089 601 487.689 601 457.244 601C426.8 601 396.311 601 365.778 601C335.244 601 304.756 601 274.222 601C243.689 601 213.2 601 182.756 601C152.311 601 121.911 601 91.4667 601C61.0222 601 30.5333 601 15.2444 601H0V502Z" fill="#111111"/>
<path d="M0 527L15.2444 521.2C30.5333 515.3 61.0222 503.7 91.4667 500.8C121.911 498 152.311 504 182.756 512C213.2 520 243.689 530 274.222 527.3C304.756 524.7 335.244 509.3 365.778 508C396.311 506.7 426.8 519.3 457.244 518.3C487.689 517.3 518.089 502.7 548.533 503.5C578.978 504.3 609.467 520.7 624.756 528.8L640 537V601H624.756C609.467 601 578.978 601 548.533 601C518.089 601 487.689 601 457.244 601C426.8 601 396.311 601 365.778 601C335.244 601 304.756 601 274.222 601C243.689 601 213.2 601 182.756 601C152.311 601 121.911 601 91.4667 601C61.0222 601 30.5333 601 15.2444 601H0V527Z" fill="#090909"/>
<path d="M0 534L15.2444 535.8C30.5333 537.7 61.0222 541.3 91.4667 540.2C121.911 539 152.311 533 182.756 537.7C213.2 542.3 243.689 557.7 274.222 564.8C304.756 572 335.244 571 365.778 569.3C396.311 567.7 426.8 565.3 457.244 563.8C487.689 562.3 518.089 561.7 548.533 555.5C578.978 549.3 609.467 537.7 624.756 531.8L640 526V601H624.756C609.467 601 578.978 601 548.533 601C518.089 601 487.689 601 457.244 601C426.8 601 396.311 601 365.778 601C335.244 601 304.756 601 274.222 601C243.689 601 213.2 601 182.756 601C152.311 601 121.911 601 91.4667 601C61.0222 601 30.5333 601 15.2444 601H0V534Z" fill="black"/>
</g>
<defs>
<clipPath id="clip0_91_46">
<rect width="640" height="600" fill="white"/>
</clipPath>
</defs>
</svg>
