<svg width="1272" height="600" viewBox="0 0 1272 600" fill="none" xmlns="http://www.w3.org/2000/svg">
<g clip-path="url(#clip0_91_46)">
<path d="M1280 0H0V600H1280V0Z" fill="#181818"/>
<path d="M0 398L30.4889 399C61.0667 400 122.044 402 182.933 396.5C243.822 391 304.622 378 365.511 385.2C426.4 392.3 487.378 419.7 548.444 427C609.511 434.3 670.489 421.7 731.556 412.3C792.622 403 853.6 397 914.489 399.5C975.378 402 1036.18 413 1097.07 416.2C1157.96 419.3 1218.93 414.7 1249.51 412.3L1280 410V601H1249.51C1218.93 601 1157.96 601 1097.07 601C1036.18 601 975.378 601 914.489 601C853.6 601 792.622 601 731.556 601C670.489 601 609.511 601 548.444 601C487.378 601 426.4 601 365.511 601C304.622 601 243.822 601 182.933 601C122.044 601 61.0667 601 30.4889 601H0V398Z" fill="#1C1C1C"/>
<path d="M0 466L30.4889 454.2C61.0667 442.3 122.044 418.7 182.933 416.3C243.822 414 304.622 433 365.511 437.8C426.4 442.7 487.378 433.3 548.444 437.8C609.511 442.3 670.489 460.7 731.556 457.5C792.622 454.3 853.6 429.7 914.489 423.7C975.378 417.7 1036.18 430.3 1097.07 439.8C1157.96 449.3 1218.93 455.7 1249.51 458.8L1280 462V601H1249.51C1218.93 601 1157.96 601 1097.07 601C1036.18 601 975.378 601 914.489 601C853.6 601 792.622 601 731.556 601C670.489 601 609.511 601 548.444 601C487.378 601 426.4 601 365.511 601C304.622 601 243.822 601 182.933 601C122.044 601 61.0667 601 30.4889 601H0V466Z" fill="#171717"/>
<path d="M0 502L30.4889 497.7C61.0667 493.3 122.044 484.7 182.933 483.8C243.822 483 304.622 490 365.511 494C426.4 498 487.378 499 548.444 494.3C609.511 489.7 670.489 479.3 731.556 475C792.622 470.7 853.6 472.3 914.489 477.2C975.378 482 1036.18 490 1097.07 488.2C1157.96 486.3 1218.93 474.7 1249.51 468.8L1280 463V601H1249.51C1218.93 601 1157.96 601 1097.07 601C1036.18 601 975.378 601 914.489 601C853.6 601 792.622 601 731.556 601C670.489 601 609.511 601 548.444 601C487.378 601 426.4 601 365.511 601C304.622 601 243.822 601 182.933 601C122.044 601 61.0667 601 30.4889 601H0V502Z" fill="#111111"/>
<path d="M0 527L30.4889 521.2C61.0667 515.3 122.044 503.7 182.933 500.8C243.822 498 304.622 504 365.511 512C426.4 520 487.378 530 548.444 527.3C609.511 524.7 670.489 509.3 731.556 508C792.622 506.7 853.6 519.3 914.489 518.3C975.378 517.3 1036.18 502.7 1097.07 503.5C1157.96 504.3 1218.93 520.7 1249.51 528.8L1280 537V601H1249.51C1218.93 601 1157.96 601 1097.07 601C1036.18 601 975.378 601 914.489 601C853.6 601 792.622 601 731.556 601C670.489 601 609.511 601 548.444 601C487.378 601 426.4 601 365.511 601C304.622 601 243.822 601 182.933 601C122.044 601 61.0667 601 30.4889 601H0V527Z" fill="#090909"/>
<path d="M0 534L30.4889 535.8C61.0667 537.7 122.044 541.3 182.933 540.2C243.822 539 304.622 533 365.511 537.7C426.4 542.3 487.378 557.7 548.444 564.8C609.511 572 670.489 571 731.556 569.3C792.622 567.7 853.6 565.3 914.489 563.8C975.378 562.3 1036.18 561.7 1097.07 555.5C1157.96 549.3 1218.93 537.7 1249.51 531.8L1280 526V601H1249.51C1218.93 601 1157.96 601 1097.07 601C1036.18 601 975.378 601 914.489 601C853.6 601 792.622 601 731.556 601C670.489 601 609.511 601 548.444 601C487.378 601 426.4 601 365.511 601C304.622 601 243.822 601 182.933 601C122.044 601 61.0667 601 30.4889 601H0V534Z" fill="black"/>
</g>
<defs>
<clipPath id="clip0_91_46">
<rect width="1280" height="600" fill="white"/>
</clipPath>
</defs>
</svg>
