<svg width="768" height="600" viewBox="0 0 768 600" fill="none" xmlns="http://www.w3.org/2000/svg">
<g clip-path="url(#clip0_91_46)">
<path d="M768 0H0V600H768V0Z" fill="#181818"/>
<path d="M0 398L18.2933 399C36.64 400 73.2267 402 109.76 396.5C146.293 391 182.773 378 219.307 385.2C255.84 392.3 292.427 419.7 329.067 427C365.707 434.3 402.293 421.7 438.933 412.3C475.573 403 512.16 397 548.693 399.5C585.227 402 621.707 413 658.24 416.2C694.773 419.3 731.36 414.7 749.707 412.3L768 410V601H749.707C731.36 601 694.773 601 658.24 601C621.707 601 585.227 601 548.693 601C512.16 601 475.573 601 438.933 601C402.293 601 365.707 601 329.067 601C292.427 601 255.84 601 219.307 601C182.773 601 146.293 601 109.76 601C73.2267 601 36.64 601 18.2933 601H0V398Z" fill="#1C1C1C"/>
<path d="M0 466L18.2933 454.2C36.64 442.3 73.2267 418.7 109.76 416.3C146.293 414 182.773 433 219.307 437.8C255.84 442.7 292.427 433.3 329.067 437.8C365.707 442.3 402.293 460.7 438.933 457.5C475.573 454.3 512.16 429.7 548.693 423.7C585.227 417.7 621.707 430.3 658.24 439.8C694.773 449.3 731.36 455.7 749.707 458.8L768 462V601H749.707C731.36 601 694.773 601 658.24 601C621.707 601 585.227 601 548.693 601C512.16 601 475.573 601 438.933 601C402.293 601 365.707 601 329.067 601C292.427 601 255.84 601 219.307 601C182.773 601 146.293 601 109.76 601C73.2267 601 36.64 601 18.2933 601H0V466Z" fill="#171717"/>
<path d="M0 502L18.2933 497.7C36.64 493.3 73.2267 484.7 109.76 483.8C146.293 483 182.773 490 219.307 494C255.84 498 292.427 499 329.067 494.3C365.707 489.7 402.293 479.3 438.933 475C475.573 470.7 512.16 472.3 548.693 477.2C585.227 482 621.707 490 658.24 488.2C694.773 486.3 731.36 474.7 749.707 468.8L768 463V601H749.707C731.36 601 694.773 601 658.24 601C621.707 601 585.227 601 548.693 601C512.16 601 475.573 601 438.933 601C402.293 601 365.707 601 329.067 601C292.427 601 255.84 601 219.307 601C182.773 601 146.293 601 109.76 601C73.2267 601 36.64 601 18.2933 601H0V502Z" fill="#111111"/>
<path d="M0 527L18.2933 521.2C36.64 515.3 73.2267 503.7 109.76 500.8C146.293 498 182.773 504 219.307 512C255.84 520 292.427 530 329.067 527.3C365.707 524.7 402.293 509.3 438.933 508C475.573 506.7 512.16 519.3 548.693 518.3C585.227 517.3 621.707 502.7 658.24 503.5C694.773 504.3 731.36 520.7 749.707 528.8L768 537V601H749.707C731.36 601 694.773 601 658.24 601C621.707 601 585.227 601 548.693 601C512.16 601 475.573 601 438.933 601C402.293 601 365.707 601 329.067 601C292.427 601 255.84 601 219.307 601C182.773 601 146.293 601 109.76 601C73.2267 601 36.64 601 18.2933 601H0V527Z" fill="#090909"/>
<path d="M0 534L18.2933 535.8C36.64 537.7 73.2267 541.3 109.76 540.2C146.293 539 182.773 533 219.307 537.7C255.84 542.3 292.427 557.7 329.067 564.8C365.707 572 402.293 571 438.933 569.3C475.573 567.7 512.16 565.3 548.693 563.8C585.227 562.3 621.707 561.7 658.24 555.5C694.773 549.3 731.36 537.7 749.707 531.8L768 526V601H749.707C731.36 601 694.773 601 658.24 601C621.707 601 585.227 601 548.693 601C512.16 601 475.573 601 438.933 601C402.293 601 365.707 601 329.067 601C292.427 601 255.84 601 219.307 601C182.773 601 146.293 601 109.76 601C73.2267 601 36.64 601 18.2933 601H0V534Z" fill="black"/>
</g>
<defs>
<clipPath id="clip0_91_46">
<rect width="768" height="600" fill="white"/>
</clipPath>
</defs>
</svg>
