<svg width="27" height="27" viewBox="0 0 27 27" fill="none" xmlns="http://www.w3.org/2000/svg">
<g clip-path="url(#clip0_27_490)">
<path d="M6.28486 8.68616H0.864561C0.624 8.68616 0.429077 8.88117 0.429077 9.12165V26.5347C0.429077 26.7753 0.624 26.9702 0.864561 26.9702H6.28486C6.52542 26.9702 6.72034 26.7753 6.72034 26.5347V9.12165C6.72034 8.88117 6.52542 8.68616 6.28486 8.68616Z" fill="white"/>
<path d="M3.57672 0.0297012C1.6045 0.0297012 0 1.63246 0 3.6025C0 5.57341 1.6045 7.17678 3.57672 7.17678C5.54737 7.17678 7.15056 5.57332 7.15056 3.6025C7.15064 1.63246 5.54737 0.0297012 3.57672 0.0297012Z" fill="white"/>
<path d="M20.0718 8.25338C17.8948 8.25338 16.2855 9.18923 15.3094 10.2526V9.12165C15.3094 8.88117 15.1145 8.68616 14.8739 8.68616H9.68304C9.44248 8.68616 9.24756 8.88117 9.24756 9.12165V26.5347C9.24756 26.7753 9.44248 26.9702 9.68304 26.9702H15.0915C15.3321 26.9702 15.527 26.7753 15.527 26.5347V17.9193C15.527 15.0161 16.3155 13.8851 18.3393 13.8851C20.5434 13.8851 20.7186 15.6982 20.7186 18.0687V26.5348C20.7186 26.7754 20.9135 26.9703 21.154 26.9703H26.5645C26.805 26.9703 27 26.7754 27 26.5348V16.9834C27 12.6665 26.1768 8.25338 20.0718 8.25338Z" fill="white"/>
</g>
<defs>
<clipPath id="clip0_27_490">
<rect width="27" height="27" fill="white"/>
</clipPath>
</defs>
</svg>
