<svg width="166" height="76" viewBox="0 0 166 76" fill="none" xmlns="http://www.w3.org/2000/svg">
<path d="M20.384 50.808C20.032 50.904 19.488 51 18.752 51.096C18.016 51.192 17.296 51.24 16.592 51.24C15.12 51.24 14.016 51 13.28 50.52C12.544 50.008 12.176 48.952 12.176 47.352V40.872C11.376 39.688 10.512 38.376 9.584 36.936C8.656 35.496 7.744 34.024 6.848 32.52C5.952 31.016 5.12 29.544 4.352 28.104C3.584 26.632 2.96 25.288 2.48 24.072C2.896 23.496 3.456 22.968 4.16 22.488C4.896 22.008 5.792 21.768 6.848 21.768C8.096 21.768 9.104 22.024 9.872 22.536C10.672 23.048 11.424 24.008 12.128 25.416L16.112 33.432H16.4C16.848 32.44 17.232 31.544 17.552 30.744C17.904 29.912 18.24 29.096 18.56 28.296C18.88 27.464 19.216 26.616 19.568 25.752C19.92 24.856 20.32 23.832 20.768 22.68C21.344 22.392 21.984 22.168 22.688 22.008C23.392 21.848 24.064 21.768 24.704 21.768C25.824 21.768 26.768 22.072 27.536 22.68C28.336 23.256 28.736 24.136 28.736 25.32C28.736 25.704 28.656 26.168 28.496 26.712C28.336 27.256 27.968 28.088 27.392 29.208C26.816 30.296 25.968 31.784 24.848 33.672C23.76 35.56 22.272 38.024 20.384 41.064V50.808ZM30.5394 36.408C30.5394 33.912 30.9234 31.704 31.6914 29.784C32.4914 27.864 33.5634 26.264 34.9074 24.984C36.2834 23.672 37.8834 22.68 39.7074 22.008C41.5634 21.336 43.5634 21 45.7074 21C47.8514 21 49.8354 21.336 51.6594 22.008C53.5154 22.68 55.1314 23.672 56.5074 24.984C57.8834 26.264 58.9554 27.864 59.7234 29.784C60.5234 31.704 60.9234 33.912 60.9234 36.408C60.9234 38.904 60.5394 41.128 59.7714 43.08C59.0034 45 57.9314 46.616 56.5554 47.928C55.2114 49.208 53.6114 50.184 51.7554 50.856C49.8994 51.528 47.8834 51.864 45.7074 51.864C43.5314 51.864 41.5154 51.528 39.6594 50.856C37.8034 50.152 36.2034 49.144 34.8594 47.832C33.5154 46.52 32.4594 44.904 31.6914 42.984C30.9234 41.064 30.5394 38.872 30.5394 36.408ZM39.1794 36.408C39.1794 39.32 39.7714 41.496 40.9554 42.936C42.1394 44.376 43.7234 45.096 45.7074 45.096C47.7234 45.096 49.3234 44.376 50.5074 42.936C51.6914 41.496 52.2834 39.32 52.2834 36.408C52.2834 33.528 51.6914 31.368 50.5074 29.928C49.3554 28.488 47.7714 27.768 45.7554 27.768C43.7714 27.768 42.1714 28.488 40.9554 29.928C39.7714 31.336 39.1794 33.496 39.1794 36.408ZM92.0814 49.992C91.6334 50.44 90.9774 50.776 90.1134 51C89.2814 51.256 88.2734 51.384 87.0894 51.384C85.9054 51.384 84.7854 51.208 83.7294 50.856C82.6734 50.504 81.8094 49.656 81.1374 48.312L76.3854 38.616C75.9054 37.624 75.4734 36.696 75.0894 35.832C74.7054 34.936 74.2894 33.912 73.8414 32.76L73.5534 32.808C73.6814 34.536 73.7454 36.296 73.7454 38.088C73.7774 39.88 73.7934 41.64 73.7934 43.368V50.808C73.4414 50.904 72.8974 51 72.1614 51.096C71.4574 51.192 70.7534 51.24 70.0494 51.24C69.3454 51.24 68.7214 51.192 68.1774 51.096C67.6334 51 67.1854 50.808 66.8334 50.52C66.4814 50.232 66.2094 49.848 66.0174 49.368C65.8254 48.856 65.7294 48.2 65.7294 47.4V23.4C66.1774 22.76 66.8654 22.28 67.7934 21.96C68.7214 21.64 69.7134 21.48 70.7694 21.48C71.9534 21.48 73.0734 21.672 74.1294 22.056C75.2174 22.408 76.0814 23.24 76.7214 24.552L81.5214 34.248C82.0014 35.24 82.4334 36.184 82.8174 37.08C83.2014 37.944 83.6174 38.952 84.0654 40.104L84.3054 40.056C84.1774 38.328 84.0974 36.6 84.0654 34.872C84.0334 33.144 84.0174 31.416 84.0174 29.688V21.912C84.3694 21.816 84.8974 21.72 85.6014 21.624C86.3374 21.528 87.0574 21.48 87.7614 21.48C89.1694 21.48 90.2414 21.736 90.9774 22.248C91.7134 22.728 92.0814 23.752 92.0814 25.32V49.992ZM104.5 22.776C105.044 22.456 105.86 22.152 106.948 21.864C108.068 21.576 109.188 21.432 110.308 21.432C111.908 21.432 113.316 21.672 114.532 22.152C115.78 22.6 116.58 23.32 116.932 24.312C117.508 25.976 118.132 27.912 118.804 30.12C119.476 32.328 120.148 34.616 120.82 36.984C121.492 39.32 122.148 41.64 122.788 43.944C123.428 46.216 123.988 48.232 124.468 49.992C124.084 50.44 123.508 50.792 122.74 51.048C121.972 51.336 121.06 51.48 120.004 51.48C119.236 51.48 118.58 51.416 118.036 51.288C117.524 51.16 117.092 50.968 116.74 50.712C116.42 50.456 116.148 50.12 115.924 49.704C115.732 49.288 115.556 48.808 115.396 48.264L114.532 44.952H105.844C105.588 45.912 105.332 46.904 105.076 47.928C104.82 48.952 104.564 49.944 104.308 50.904C103.86 51.064 103.38 51.192 102.868 51.288C102.388 51.416 101.796 51.48 101.092 51.48C99.4595 51.48 98.2435 51.208 97.4435 50.664C96.6755 50.088 96.2915 49.304 96.2915 48.312C96.2915 47.864 96.3555 47.416 96.4835 46.968C96.6115 46.52 96.7555 45.992 96.9155 45.384C97.1395 44.52 97.4435 43.448 97.8275 42.168C98.2435 40.888 98.6915 39.512 99.1715 38.04C99.6515 36.536 100.164 35 100.708 33.432C101.252 31.864 101.763 30.392 102.243 29.016C102.724 27.608 103.156 26.36 103.54 25.272C103.956 24.184 104.276 23.352 104.5 22.776ZM110.26 28.968C109.812 30.312 109.3 31.816 108.724 33.48C108.18 35.112 107.684 36.776 107.236 38.472H113.188C112.74 36.744 112.276 35.064 111.796 33.432C111.348 31.768 110.932 30.28 110.548 28.968H110.26ZM136.845 39.432C135.437 38.952 134.157 38.472 133.005 37.992C131.853 37.48 130.861 36.872 130.029 36.168C129.197 35.464 128.541 34.632 128.061 33.672C127.613 32.68 127.389 31.48 127.389 30.072C127.389 27.352 128.429 25.176 130.509 23.544C132.621 21.912 135.565 21.096 139.341 21.096C140.717 21.096 141.997 21.192 143.181 21.384C144.365 21.576 145.373 21.88 146.205 22.296C147.069 22.68 147.741 23.192 148.221 23.832C148.701 24.44 148.941 25.16 148.941 25.992C148.941 26.824 148.749 27.544 148.365 28.152C147.981 28.728 147.517 29.224 146.973 29.64C146.269 29.192 145.325 28.808 144.141 28.488C142.957 28.136 141.661 27.96 140.253 27.96C138.813 27.96 137.757 28.168 137.085 28.584C136.413 28.968 136.077 29.464 136.077 30.072C136.077 30.552 136.285 30.952 136.701 31.272C137.117 31.56 137.741 31.832 138.573 32.088L141.117 32.904C144.125 33.864 146.429 35.096 148.029 36.6C149.661 38.072 150.477 40.088 150.477 42.648C150.477 45.368 149.405 47.576 147.261 49.272C145.117 50.936 141.965 51.768 137.805 51.768C136.333 51.768 134.957 51.64 133.677 51.384C132.429 51.16 131.325 50.824 130.365 50.376C129.437 49.896 128.701 49.32 128.157 48.648C127.645 47.944 127.389 47.144 127.389 46.248C127.389 45.32 127.661 44.536 128.205 43.896C128.749 43.224 129.341 42.712 129.981 42.36C130.877 43.064 131.965 43.672 133.245 44.184C134.557 44.696 135.981 44.952 137.517 44.952C139.085 44.952 140.189 44.712 140.829 44.232C141.469 43.752 141.789 43.192 141.789 42.552C141.789 41.912 141.533 41.432 141.021 41.112C140.509 40.76 139.789 40.424 138.861 40.104L136.845 39.432ZM158.52 51.2727C157.679 51.2727 156.957 50.9716 156.355 50.3693C155.753 49.767 155.452 49.0455 155.452 48.2045C155.452 47.3636 155.753 46.642 156.355 46.0398C156.957 45.4375 157.679 45.1364 158.52 45.1364C159.361 45.1364 160.082 45.4375 160.685 46.0398C161.287 46.642 161.588 47.3636 161.588 48.2045C161.588 48.7614 161.446 49.2727 161.162 49.7386C160.889 50.2045 160.52 50.5795 160.054 50.8636C159.599 51.1364 159.088 51.2727 158.52 51.2727Z" fill="#AEB118"/>
<path d="M18.384 50.808C18.032 50.904 17.488 51 16.752 51.096C16.016 51.192 15.296 51.24 14.592 51.24C13.12 51.24 12.016 51 11.28 50.52C10.544 50.008 10.176 48.952 10.176 47.352V40.872C9.376 39.688 8.512 38.376 7.584 36.936C6.656 35.496 5.744 34.024 4.848 32.52C3.952 31.016 3.12 29.544 2.352 28.104C1.584 26.632 0.96 25.288 0.48 24.072C0.896 23.496 1.456 22.968 2.16 22.488C2.896 22.008 3.792 21.768 4.848 21.768C6.096 21.768 7.104 22.024 7.872 22.536C8.672 23.048 9.424 24.008 10.128 25.416L14.112 33.432H14.4C14.848 32.44 15.232 31.544 15.552 30.744C15.904 29.912 16.24 29.096 16.56 28.296C16.88 27.464 17.216 26.616 17.568 25.752C17.92 24.856 18.32 23.832 18.768 22.68C19.344 22.392 19.984 22.168 20.688 22.008C21.392 21.848 22.064 21.768 22.704 21.768C23.824 21.768 24.768 22.072 25.536 22.68C26.336 23.256 26.736 24.136 26.736 25.32C26.736 25.704 26.656 26.168 26.496 26.712C26.336 27.256 25.968 28.088 25.392 29.208C24.816 30.296 23.968 31.784 22.848 33.672C21.76 35.56 20.272 38.024 18.384 41.064V50.808ZM28.5394 36.408C28.5394 33.912 28.9234 31.704 29.6914 29.784C30.4914 27.864 31.5634 26.264 32.9074 24.984C34.2834 23.672 35.8834 22.68 37.7074 22.008C39.5634 21.336 41.5634 21 43.7074 21C45.8514 21 47.8354 21.336 49.6594 22.008C51.5154 22.68 53.1314 23.672 54.5074 24.984C55.8834 26.264 56.9554 27.864 57.7234 29.784C58.5234 31.704 58.9234 33.912 58.9234 36.408C58.9234 38.904 58.5394 41.128 57.7714 43.08C57.0034 45 55.9314 46.616 54.5554 47.928C53.2114 49.208 51.6114 50.184 49.7554 50.856C47.8994 51.528 45.8834 51.864 43.7074 51.864C41.5314 51.864 39.5154 51.528 37.6594 50.856C35.8034 50.152 34.2034 49.144 32.8594 47.832C31.5154 46.52 30.4594 44.904 29.6914 42.984C28.9234 41.064 28.5394 38.872 28.5394 36.408ZM37.1794 36.408C37.1794 39.32 37.7714 41.496 38.9554 42.936C40.1394 44.376 41.7234 45.096 43.7074 45.096C45.7234 45.096 47.3234 44.376 48.5074 42.936C49.6914 41.496 50.2834 39.32 50.2834 36.408C50.2834 33.528 49.6914 31.368 48.5074 29.928C47.3554 28.488 45.7714 27.768 43.7554 27.768C41.7714 27.768 40.1714 28.488 38.9554 29.928C37.7714 31.336 37.1794 33.496 37.1794 36.408ZM90.0814 49.992C89.6334 50.44 88.9774 50.776 88.1134 51C87.2814 51.256 86.2734 51.384 85.0894 51.384C83.9054 51.384 82.7854 51.208 81.7294 50.856C80.6734 50.504 79.8094 49.656 79.1374 48.312L74.3854 38.616C73.9054 37.624 73.4734 36.696 73.0894 35.832C72.7054 34.936 72.2894 33.912 71.8414 32.76L71.5534 32.808C71.6814 34.536 71.7454 36.296 71.7454 38.088C71.7774 39.88 71.7934 41.64 71.7934 43.368V50.808C71.4414 50.904 70.8974 51 70.1614 51.096C69.4574 51.192 68.7534 51.24 68.0494 51.24C67.3454 51.24 66.7214 51.192 66.1774 51.096C65.6334 51 65.1854 50.808 64.8334 50.52C64.4814 50.232 64.2094 49.848 64.0174 49.368C63.8254 48.856 63.7294 48.2 63.7294 47.4V23.4C64.1774 22.76 64.8654 22.28 65.7934 21.96C66.7214 21.64 67.7134 21.48 68.7694 21.48C69.9534 21.48 71.0734 21.672 72.1294 22.056C73.2174 22.408 74.0814 23.24 74.7214 24.552L79.5214 34.248C80.0014 35.24 80.4334 36.184 80.8174 37.08C81.2014 37.944 81.6174 38.952 82.0654 40.104L82.3054 40.056C82.1774 38.328 82.0974 36.6 82.0654 34.872C82.0334 33.144 82.0174 31.416 82.0174 29.688V21.912C82.3694 21.816 82.8974 21.72 83.6014 21.624C84.3374 21.528 85.0574 21.48 85.7614 21.48C87.1694 21.48 88.2414 21.736 88.9774 22.248C89.7134 22.728 90.0814 23.752 90.0814 25.32V49.992ZM102.5 22.776C103.044 22.456 103.86 22.152 104.948 21.864C106.068 21.576 107.188 21.432 108.308 21.432C109.908 21.432 111.316 21.672 112.532 22.152C113.78 22.6 114.58 23.32 114.932 24.312C115.508 25.976 116.132 27.912 116.804 30.12C117.476 32.328 118.148 34.616 118.82 36.984C119.492 39.32 120.148 41.64 120.788 43.944C121.428 46.216 121.988 48.232 122.468 49.992C122.084 50.44 121.508 50.792 120.74 51.048C119.972 51.336 119.06 51.48 118.004 51.48C117.236 51.48 116.58 51.416 116.036 51.288C115.524 51.16 115.092 50.968 114.74 50.712C114.42 50.456 114.148 50.12 113.924 49.704C113.732 49.288 113.556 48.808 113.396 48.264L112.532 44.952H103.844C103.588 45.912 103.332 46.904 103.076 47.928C102.82 48.952 102.564 49.944 102.308 50.904C101.86 51.064 101.38 51.192 100.868 51.288C100.388 51.416 99.7955 51.48 99.0915 51.48C97.4595 51.48 96.2435 51.208 95.4435 50.664C94.6755 50.088 94.2915 49.304 94.2915 48.312C94.2915 47.864 94.3555 47.416 94.4835 46.968C94.6115 46.52 94.7555 45.992 94.9155 45.384C95.1395 44.52 95.4435 43.448 95.8275 42.168C96.2435 40.888 96.6915 39.512 97.1715 38.04C97.6515 36.536 98.1635 35 98.7075 33.432C99.2515 31.864 99.7635 30.392 100.243 29.016C100.724 27.608 101.156 26.36 101.54 25.272C101.956 24.184 102.276 23.352 102.5 22.776ZM108.26 28.968C107.812 30.312 107.3 31.816 106.724 33.48C106.18 35.112 105.684 36.776 105.236 38.472H111.188C110.74 36.744 110.276 35.064 109.796 33.432C109.348 31.768 108.932 30.28 108.548 28.968H108.26ZM134.845 39.432C133.437 38.952 132.157 38.472 131.005 37.992C129.853 37.48 128.861 36.872 128.029 36.168C127.197 35.464 126.541 34.632 126.061 33.672C125.613 32.68 125.389 31.48 125.389 30.072C125.389 27.352 126.429 25.176 128.509 23.544C130.621 21.912 133.565 21.096 137.341 21.096C138.717 21.096 139.997 21.192 141.181 21.384C142.365 21.576 143.373 21.88 144.205 22.296C145.069 22.68 145.741 23.192 146.221 23.832C146.701 24.44 146.941 25.16 146.941 25.992C146.941 26.824 146.749 27.544 146.365 28.152C145.981 28.728 145.517 29.224 144.973 29.64C144.269 29.192 143.325 28.808 142.141 28.488C140.957 28.136 139.661 27.96 138.253 27.96C136.813 27.96 135.757 28.168 135.085 28.584C134.413 28.968 134.077 29.464 134.077 30.072C134.077 30.552 134.285 30.952 134.701 31.272C135.117 31.56 135.741 31.832 136.573 32.088L139.117 32.904C142.125 33.864 144.429 35.096 146.029 36.6C147.661 38.072 148.477 40.088 148.477 42.648C148.477 45.368 147.405 47.576 145.261 49.272C143.117 50.936 139.965 51.768 135.805 51.768C134.333 51.768 132.957 51.64 131.677 51.384C130.429 51.16 129.325 50.824 128.365 50.376C127.437 49.896 126.701 49.32 126.157 48.648C125.645 47.944 125.389 47.144 125.389 46.248C125.389 45.32 125.661 44.536 126.205 43.896C126.749 43.224 127.341 42.712 127.981 42.36C128.877 43.064 129.965 43.672 131.245 44.184C132.557 44.696 133.981 44.952 135.517 44.952C137.085 44.952 138.189 44.712 138.829 44.232C139.469 43.752 139.789 43.192 139.789 42.552C139.789 41.912 139.533 41.432 139.021 41.112C138.509 40.76 137.789 40.424 136.861 40.104L134.845 39.432ZM156.52 51.2727C155.679 51.2727 154.957 50.9716 154.355 50.3693C153.753 49.767 153.452 49.0455 153.452 48.2045C153.452 47.3636 153.753 46.642 154.355 46.0398C154.957 45.4375 155.679 45.1364 156.52 45.1364C157.361 45.1364 158.082 45.4375 158.685 46.0398C159.287 46.642 159.588 47.3636 159.588 48.2045C159.588 48.7614 159.446 49.2727 159.162 49.7386C158.889 50.2045 158.52 50.5795 158.054 50.8636C157.599 51.1364 157.088 51.2727 156.52 51.2727Z" fill="white"/>
</svg>
