<svg width="50" height="50" viewBox="0 0 50 50" fill="none" xmlns="http://www.w3.org/2000/svg">
<g clip-path="url(#clip0_93_59)">
<path d="M33.1203 23.5108C36.9166 21.79 37.4824 8.69197 35.2427 4.83409C32.3171 -0.202262 18.4099 0.809112 14.0185 4.40902C13.5143 6.19725 13.5671 9.44244 13.5905 12.0222H27.3745V13.23H13.5935C13.5935 13.2476 7.45779 13.2681 7.45779 13.2681C-3.12206 13.2681 -2.9022 36.2453 11.0577 36.2453C11.0577 36.2453 11.5707 31.1562 12.4678 28.6058C15.238 20.7347 26.8762 26.3426 33.1203 23.5108ZM18.6884 10.1577C17.0996 10.1577 15.8126 8.87079 15.8126 7.27898C15.8126 5.69009 17.0996 4.40022 18.6884 4.40022C20.2803 4.40022 21.5672 5.69009 21.5672 7.27898C21.5701 8.86786 20.2803 10.1577 18.6884 10.1577Z" fill="white"/>
<path d="M38.4615 13.7518C38.4615 13.7518 38.0951 18.8438 37.1981 21.3913C34.4278 29.2595 22.7926 23.6544 16.5455 26.4863C12.7521 28.2071 12.1805 41.3051 14.4231 45.163C17.3458 50.2023 31.2529 49.1909 35.6473 45.5881C36.1515 43.8028 36.0987 40.5576 36.0753 37.9778H22.2883V36.7701H36.0694C36.0694 36.7525 42.8617 36.732 42.8617 36.732C52.612 36.732 53.4856 13.7518 38.4615 13.7518ZM30.4819 39.341C32.0708 39.341 33.3607 40.6279 33.3607 42.2198C33.3607 43.8086 32.0708 45.0956 30.4819 45.0956C28.8931 45.0956 27.6061 43.8086 27.6061 42.2198C27.6061 40.6279 28.8931 39.341 30.4819 39.341Z" fill="white"/>
</g>
<defs>
<clipPath id="clip0_93_59">
<rect width="50" height="50" fill="white"/>
</clipPath>
</defs>
</svg>
