<svg width="50" height="50" viewBox="0 0 50 50" fill="none" xmlns="http://www.w3.org/2000/svg">
<path d="M25 20.3911C22.7388 20.3911 20.8974 22.2358 20.8974 24.501C20.8974 26.7662 22.7388 28.6109 25 28.6109C27.2612 28.6109 29.1026 26.7662 29.1026 24.501C29.1026 22.2358 27.2612 20.3911 25 20.3911ZM13.5144 32.6689L12.6088 32.4443C5.86975 30.7335 2 27.839 2 24.4938C2 21.1486 5.87119 18.2541 12.6088 16.5433L13.5144 16.3187L13.7688 17.2187C14.4502 19.5732 15.3256 21.8686 16.3822 24.0891L16.5763 24.4938L16.3822 24.9056C15.3271 27.1175 14.4502 29.413 13.7688 31.7761L13.5144 32.6689ZM12.1904 18.6429C7.06863 20.0829 3.92481 22.2948 3.92481 24.4938C3.92481 26.6927 7.07006 28.896 12.1904 30.3447C12.8201 28.3416 13.5762 26.3918 14.4588 24.4938C13.5747 22.5958 12.8186 20.646 12.1904 18.6429ZM36.4856 32.6689L36.2312 31.7689C35.5498 29.4144 34.6744 27.119 33.6178 24.9056L33.4238 24.4938L33.6178 24.0819C34.6729 21.87 35.5498 19.5746 36.2312 17.2115L36.4856 16.3187L37.3913 16.5433C44.1303 18.2541 48 21.1486 48 24.4938C48 27.839 44.1288 30.7335 37.3913 32.4443L36.4856 32.6689ZM35.5412 24.4938C36.4626 26.4882 37.2259 28.4467 37.8096 30.3447C42.9386 28.8974 46.0752 26.6927 46.0752 24.4938C46.0752 22.2948 42.9299 20.0916 37.8096 18.6429C37.1799 20.6373 36.4238 22.5958 35.5412 24.4938ZM12.1746 18.6357L11.9202 17.7357C10.0256 11.0452 10.602 6.24555 13.5 4.57222C16.3448 2.92913 20.9046 4.87175 25.6886 9.79238L26.3397 10.4606L25.6886 11.1287C23.9894 12.8986 22.4398 14.8037 21.0469 16.8284L20.7852 17.1956L20.3353 17.2331C17.8872 17.4275 15.4608 17.8177 13.0802 18.4038L12.1746 18.6357ZM15.8129 5.90858C15.2969 5.90858 14.8398 6.0137 14.4574 6.23835C12.5556 7.34142 12.2192 11.1662 13.5288 16.3259C15.5729 15.8679 17.6386 15.5454 19.7287 15.3581C20.9261 13.6474 22.2443 12.0129 23.6588 10.475C20.6717 7.55743 17.8413 5.90714 15.8129 5.90714V5.90858ZM34.1942 44.9986C34.1871 44.9986 34.1871 44.9986 34.1942 44.9986C31.4616 44.9986 27.9497 42.9436 24.3114 39.1937L23.6602 38.5256L24.3114 37.8574C26.0106 36.0876 27.5602 34.1824 28.9531 32.1577L29.2076 31.7905L29.6575 31.7458C32.1056 31.5586 34.5321 31.1684 36.9198 30.5751L37.8254 30.3504L38.0798 31.2505C39.9744 37.9409 39.398 42.7334 36.5 44.4053C35.7956 44.8099 35.0021 45.013 34.1942 44.9971V44.9986ZM26.3397 38.5112C29.3269 41.4287 32.1573 43.079 34.1856 43.079H34.1928C34.7017 43.079 35.1588 42.9667 35.5412 42.7492C37.443 41.6461 37.788 37.8214 36.4698 32.6617C34.4257 33.1196 32.3514 33.4422 30.2699 33.6222C29.0724 35.3402 27.7542 36.9674 26.3397 38.5126V38.5112ZM37.8254 18.6357L36.9198 18.4038C34.5321 17.8192 32.1056 17.4289 29.6575 17.2331L29.2076 17.1956L28.9531 16.8284C27.5602 14.8037 26.0106 12.8986 24.3114 11.1287L23.6602 10.4606L24.3114 9.79238C29.0954 4.87175 33.6552 2.92913 36.5 4.57222C39.398 6.24411 39.9744 11.0452 38.0798 17.7357L37.8254 18.6357ZM30.2713 15.3581C32.4578 15.5612 34.5392 15.8838 36.4712 16.3259C37.7894 11.1662 37.4444 7.33998 35.5426 6.23835C33.648 5.14392 30.0844 6.82301 26.3412 10.4764C27.7557 12.0216 29.0667 13.6488 30.2713 15.3596V15.3581ZM15.8129 44.9986C15.0036 45.013 14.2029 44.8114 13.5 44.4067C10.602 42.7348 10.0256 37.9409 11.9202 31.2519L12.1746 30.3519L13.0802 30.5765C15.2969 31.1396 17.7378 31.5284 20.3353 31.7473L20.7852 31.7919L21.0397 32.1591C22.4326 34.1838 23.9823 36.089 25.6814 37.8588L26.3326 38.527L25.6814 39.1952C22.0503 42.9451 18.5384 45 15.8129 45V44.9986ZM13.5302 32.6617C12.212 37.8214 12.557 41.6476 14.4588 42.7492C16.3534 43.8292 19.9098 42.1646 23.6602 38.5112C22.2458 36.966 20.9276 35.3387 19.7301 33.6208C17.6414 33.4408 15.5743 33.1182 13.5302 32.6603V32.6617ZM25 33.8685C23.4202 33.8685 21.803 33.8008 20.1786 33.6654L19.7287 33.628L19.4671 33.2536C18.5543 31.933 17.6846 30.5765 16.8839 29.1811C16.0746 27.7857 15.3342 26.3615 14.6457 24.9056L14.4516 24.4938L14.6457 24.0819C15.3342 22.6275 16.076 21.2018 16.8839 19.8064C17.6774 18.4341 18.5456 17.0617 19.4671 15.734L19.7287 15.3596L20.1786 15.3221C23.39 15.0514 26.6172 15.0514 29.8214 15.3221L30.2713 15.3596L30.5329 15.734C32.3672 18.3736 33.9844 21.1716 35.3543 24.0819L35.5484 24.4938L35.3543 24.9056C33.9844 27.816 32.3744 30.614 30.5329 33.2536L30.2713 33.628L29.8214 33.6654C28.2042 33.8008 26.5798 33.8685 25 33.8685ZM20.7924 31.7833C23.6229 32.0007 26.3771 32.0007 29.2147 31.7833C30.7946 29.4662 32.2019 27.0283 33.4223 24.4923C32.2091 21.9579 30.8018 19.5199 29.2076 17.2014C26.4073 16.984 23.5927 16.984 20.7924 17.2014C19.1982 19.5184 17.7895 21.9564 16.5777 24.4923C17.7981 27.0268 19.2054 29.4648 20.7924 31.7833Z" fill="white"/>
</svg>
