<svg width="25" height="25" viewBox="0 0 25 25" fill="none" xmlns="http://www.w3.org/2000/svg">
<path d="M13.0531 0.0210938C14.4164 0 15.7719 0.0125 17.1258 0C17.2078 1.59453 17.7813 3.21875 18.9485 4.34609C20.1133 5.50156 21.761 6.03047 23.3641 6.20937V10.4039C21.8617 10.3547 20.3524 10.0422 18.9891 9.39531C18.3953 9.12656 17.8422 8.78047 17.3008 8.42656C17.2938 11.4703 17.3133 14.5102 17.2813 17.5414C17.2 18.9977 16.7196 20.4469 15.8727 21.6469C14.5102 23.6445 12.1453 24.9469 9.71643 24.9875C8.22658 25.0727 6.7383 24.6664 5.46877 23.918C3.36486 22.6773 1.88439 20.4062 1.66877 17.9688C1.64377 17.4477 1.63518 16.9273 1.65627 16.4188C1.84377 14.4367 2.82424 12.5406 4.34611 11.2508C6.07111 9.74844 8.48752 9.03281 10.75 9.45625C10.7711 10.9992 10.7094 12.5406 10.7094 14.0836C9.6758 13.7492 8.46799 13.843 7.56486 14.4703C6.90549 14.8977 6.40471 15.5523 6.14377 16.293C5.92814 16.8211 5.98986 17.4078 6.00236 17.9688C6.25002 19.6781 7.89377 21.1148 9.64846 20.9594C10.8117 20.9469 11.9266 20.2719 12.5328 19.2836C12.7289 18.9375 12.9485 18.5836 12.9602 18.1766C13.0625 16.3133 13.0219 14.4578 13.0344 12.5945C13.043 8.39531 13.0219 4.20781 13.0539 0.021875L13.0531 0.0210938Z" fill="white"/>
</svg>
